<?xml version="1.0" encoding="UTF-8"?>
<svg width="1363px" height="340px" viewBox="0 0 1363 340" version="1.1" xmlns="http://www.w3.org/2000/svg" xmlns:xlink="http://www.w3.org/1999/xlink">
    <!-- Generator: Sketch 43.1 (39012) - http://www.bohemiancoding.com/sketch -->
    <title>logo</title>
    <desc>Created with Sketch.</desc>
    <defs></defs>
    <g id="Page-1" stroke="none" stroke-width="1" fill="none" fill-rule="evenodd">
        <g id="logo" fill="#FFFFFF">
            <path d="M320.8,0.7 L18.4,0.7 C8.3,0.7 0.1,8.9 0.1,19 L0.1,321.1 C0.1,331.2 8.3,339.4 18.4,339.4 L320.8,339.4 C330.9,339.4 339.1,331.2 339.1,321.1 L339.1,19.1 C339.1,9 330.9,0.7 320.8,0.7 Z M156.5,186.6 C156.5,193.4 155.2,201.2 149.6,205.8 C144,210.4 135,211.4 128,211.4 L0.4,211.4 L0.4,199.3 L127.4,199.3 C131.6,199.3 136.9,198.8 140.4,196.2 C143.5,193.9 144.3,190.1 144.3,186.5 C144.3,183.2 143.7,179.1 140.9,176.9 C137.7,174.4 130.7,174.1 126.9,174.1 L80.9,174.1 C73.8,174.1 63.8,173.4 58.1,168.5 C53.3,164.4 52.2,157.6 52.2,151.7 C52.2,144.8 53.7,137.5 59.2,132.8 C64.8,128 73.4,127 80.5,127 L154.5,127 L154.5,139.1 L119.4,139.1 L80.6,139.1 C76.9,139.1 70.2,139.4 67.3,142.2 C64.9,144.4 64.6,148.8 64.6,151.8 C64.6,154.4 65,158 67.4,159.5 C71,161.9 79.1,162.1 83.3,162.1 L124.8,162.1 C132.5,162.1 142.3,163 148.8,167.5 C154.7,171.7 156.8,178.2 156.8,185.2 L156.8,186.6 L156.5,186.6 Z M285.6,211.3 L273.3,211.3 L273.3,137.2 L271.8,137.2 L228.4,211.3 L221.8,211.3 L178.4,137.2 L176.8,137.2 L176.8,211.3 L164.5,211.3 L164.5,126.7 L185.5,126.7 L225.2,193.5 L264.7,126.7 L285.7,126.7 L285.7,211.3 L285.6,211.3 Z" id="Shape"></path>
            <path d="M380.5,149.8 C380.5,142.8 382,135.4 387.5,130.6 C393.2,125.7 402,124.7 409.2,124.7 L481.8,124.7 L481.8,136 L409.3,136 C405.2,136 398.3,136.4 395.1,139.4 C392.5,141.8 392.1,146.5 392.1,149.8 C392.1,152.8 392.6,156.6 395.3,158.4 C399.2,160.9 407.7,161.2 412.1,161.2 L449.5,161.2 C457.3,161.2 467.4,162.1 474,166.7 C480,170.9 482,177.5 482,184.6 L482,186.3 C482,193.2 480.7,201.1 475.1,205.7 C469.4,210.4 460.2,211.3 453.1,211.3 L380.2,211.3 L380.2,200 L452.4,200 C456.9,200 462.6,199.4 466.3,196.6 C469.6,194.1 470.6,190 470.6,186 C470.6,182.3 469.9,178 466.9,175.5 C463.4,172.8 456.1,172.4 451.9,172.4 L409.8,172.4 C402.6,172.4 392.3,171.7 386.6,166.7 C381.7,162.6 380.5,155.8 380.5,149.8 L380.5,149.8 Z" id="Shape"></path>
            <path d="M382,149.8 C382,141.4 384.2,135.4 388.5,131.7 C392.8,128 399.8,126.2 409.2,126.2 L480.4,126.2 L480.4,134.7 L409.3,134.7 C401.8,134.7 396.8,136 394.1,138.4 C391.8,140.6 390.6,144.4 390.6,149.9 C390.6,154.7 391.9,158 394.5,159.7 C397.6,161.7 403.4,162.7 412.1,162.7 L449.5,162.7 C460.4,162.7 468.3,164.4 473.2,167.9 C478.1,171.4 480.6,177 480.6,184.6 L480.6,186.3 C480.6,195 478.5,201.1 474.2,204.6 C469.9,208.1 462.9,209.9 453.1,209.9 L381.6,209.9 L381.6,201.4 L452.4,201.4 C459,201.4 463.9,200.2 467.1,197.7 C470.3,195.3 471.9,191.3 471.9,185.9 C471.9,180.4 470.5,176.6 467.6,174.3 C464.7,172 459.5,170.9 451.7,170.9 L409.6,170.9 C398.8,170.9 391.4,169.1 387.3,165.6 C383.8,162.5 382,157.2 382,149.8 L382,149.8 Z" id="Shape" fill-rule="nonzero"></path>
            <path d="M1284.4,203.4 L1339.4,203.4 C1344.3,203.4 1351.3,202.7 1351.3,196.3 L1351.3,193.6 C1351.3,191.5 1350.6,189.8 1348.9,188.5 C1346.8,186.9 1343.9,186.5 1341.3,186.5 L1306.3,186.5 C1300.9,186.5 1294.7,185.8 1290.2,182.6 C1285.9,179.6 1284.4,174.7 1284.4,169.6 L1284.4,167.2 C1284.4,162.4 1286.3,158.4 1290,155.3 C1294.8,151.4 1301.1,150.3 1307.1,150.3 L1362.7,150.3 L1362.7,160.4 L1305.6,160.4 C1300.7,160.4 1295.6,161.4 1295.6,167.2 L1295.6,169.6 C1295.6,175.4 1300.7,176.4 1305.6,176.4 L1340.6,176.4 C1346.1,176.4 1352.3,177.2 1356.8,180.6 C1361.1,183.7 1362.7,188.4 1362.7,193.6 L1362.7,196.3 C1362.7,201.1 1360.8,205.2 1357.1,208.3 C1352.3,212.3 1345.8,213.5 1339.7,213.5 L1284.2,213.5 L1284.4,203.4 L1284.4,203.4 Z M1214.9,155.3 C1215.1,155.1 1215.3,154.9 1215.5,154.8 C1219.4,151.5 1224.6,150.6 1229.5,150.6 L1246.5,150.6 C1253.3,150.6 1260.3,152 1265.6,156.6 C1271,161.3 1273.4,167.4 1273.4,174.5 L1273.4,177.6 L1261.8,177.6 L1261.8,175.5 C1261.8,172.5 1261.1,169.5 1259.5,166.9 C1256.4,162.1 1251.2,160.6 1245.7,160.6 L1230,160.6 C1225.9,160.6 1222.2,161.7 1219.1,164.4 C1216.4,166.7 1214.8,169.6 1214.8,173.2 L1214.8,213.2 L1203.2,213.2 L1203.2,150.5 L1214.8,150.5 L1214.8,155.3 L1214.9,155.3 Z M1114.4,175.3 C1114.4,168.7 1116,162.2 1120.8,157.5 C1126.4,151.9 1134.5,150.4 1142,150.4 L1166,150.4 C1173.7,150.4 1182,152 1187.5,157.9 C1192,162.7 1193.6,168.9 1193.6,175.3 L1193.6,188.4 C1193.6,194.9 1192,201.2 1187.4,206 C1181.8,211.9 1173.8,213.6 1166,213.6 L1142,213.6 C1134.8,213.6 1126.8,212.3 1121.3,207.2 C1116,202.3 1114.4,195.4 1114.4,188.4 L1114.4,175.3 L1114.4,175.3 Z M1047.5,160.5 L1040,160.5 L1040,150.4 L1047.5,150.4 L1047.5,138.8 L1059.1,138.8 L1059.1,150.4 L1104.3,150.4 L1104.3,160.5 L1059,160.5 L1059,190.6 C1059,194.1 1059.8,197.7 1062.3,200.3 C1064.5,202.5 1067.3,203.3 1070.4,203.3 L1082,203.3 C1086.7,203.3 1092.8,202.5 1095.9,198.4 C1097.8,195.8 1098.2,191.6 1098.2,188.5 L1098.2,186.4 L1109.8,186.4 L1109.8,189.5 C1109.8,194.8 1108.7,200 1105.5,204.3 C1100.2,211.5 1091.4,213.5 1082.9,213.5 L1070.4,213.5 C1064.1,213.5 1058,212 1053.5,207.5 C1048.8,202.8 1047.5,195.9 1047.5,189.5 L1047.5,160.5 L1047.5,160.5 Z M956.6,175.3 C956.6,168.7 958.2,162.2 963,157.5 C968.6,151.9 976.7,150.4 984.2,150.4 L1008.2,150.4 C1015.9,150.4 1024.2,152 1029.7,157.9 C1034.2,162.7 1035.8,168.9 1035.8,175.3 L1035.8,188.4 C1035.8,194.9 1034.2,201.2 1029.6,206 C1024,211.9 1016,213.6 1008.2,213.6 L984.2,213.6 C977,213.6 969,212.3 963.5,207.2 C958.2,202.3 956.6,195.4 956.6,188.4 L956.6,175.3 L956.6,175.3 Z M1125.9,188.4 C1125.9,199.3 1132.1,203.5 1142.5,203.5 L1165.3,203.5 C1169.7,203.5 1174.2,202.7 1177.7,199.8 C1181,197 1182,192.7 1182,188.5 L1182,175.4 C1182,171.3 1181,167.2 1177.8,164.4 C1174.4,161.4 1169.7,160.6 1165.4,160.6 L1142.6,160.6 C1138.4,160.6 1133.3,161.2 1130,164.1 C1126.8,166.9 1126,171.4 1126,175.4 L1126,188.4 L1125.9,188.4 Z M968.1,188.4 C968.1,199.3 974.3,203.5 984.7,203.5 L1007.5,203.5 C1011.9,203.5 1016.4,202.7 1019.9,199.8 C1023.2,197 1024.2,192.7 1024.2,188.5 L1024.2,175.4 C1024.2,171.3 1023.2,167.2 1020,164.4 C1016.6,161.4 1011.9,160.6 1007.6,160.6 L984.8,160.6 C980.6,160.6 975.5,161.2 972.2,164.1 C969,166.9 968.2,171.4 968.2,175.4 L968.2,188.4 L968.1,188.4 Z" id="Shape"></path>
            <path d="M1285.8,204.8 L1339.4,204.8 C1348.2,204.8 1352.7,202 1352.7,196.3 L1352.7,193.6 C1352.7,190.9 1351.7,188.9 1349.7,187.4 C1347.7,185.9 1344.9,185.2 1341.3,185.2 L1306.3,185.2 C1299.6,185.2 1294.5,184 1291,181.6 C1287.5,179.2 1285.8,175.2 1285.8,169.7 L1285.8,167.3 C1285.8,162.9 1287.5,159.3 1290.9,156.5 C1294.8,153.4 1300.2,151.8 1307.1,151.8 L1361.3,151.8 L1361.3,159.1 L1305.7,159.1 C1298.1,159.1 1294.3,161.9 1294.3,167.3 L1294.3,169.7 C1294.3,175.2 1298.1,177.9 1305.7,177.9 L1340.7,177.9 C1347.4,177.9 1352.6,179.2 1356.1,181.8 C1359.6,184.4 1361.4,188.3 1361.4,193.7 L1361.4,196.4 C1361.4,200.8 1359.7,204.5 1356.3,207.3 C1352.4,210.5 1346.9,212.1 1339.8,212.1 L1285.8,212.1 L1285.8,204.8 L1285.8,204.8 Z M1213.4,211.9 L1204.7,211.9 L1204.7,152 L1213.4,152 L1213.4,159.8 C1214.4,158 1215.3,156.7 1216.3,155.9 C1219.4,153.3 1223.7,152 1229.4,152 L1246.4,152 C1254.2,152 1260.2,153.9 1264.6,157.7 C1269.4,161.9 1271.9,167.5 1271.9,174.5 L1271.9,176.2 L1263.2,176.2 L1263.2,175.5 C1263.2,171.9 1262.4,168.8 1260.7,166.2 C1257.7,161.6 1252.7,159.3 1245.7,159.3 L1230,159.3 C1225.3,159.3 1221.4,160.7 1218.2,163.5 C1215,166.3 1213.4,169.6 1213.4,173.4 L1213.4,211.9 L1213.4,211.9 Z M1124.5,188.4 C1124.5,199.4 1130.5,204.9 1142.6,204.9 L1165.4,204.9 C1171.1,204.9 1175.5,203.5 1178.7,200.8 C1181.9,198.1 1183.5,194 1183.5,188.4 L1183.5,175.3 C1183.5,170 1181.9,166 1178.8,163.2 C1175.7,160.4 1171.2,159 1165.4,159 L1142.6,159 C1136.5,159 1132,160.3 1129,162.9 C1126,165.5 1124.5,169.6 1124.5,175.3 L1124.5,188.4 L1124.5,188.4 Z M1115.8,175.3 C1115.8,168 1117.8,162.4 1121.7,158.5 C1126.1,154.1 1132.9,151.8 1141.9,151.8 L1165.9,151.8 C1175.2,151.8 1182,154.1 1186.4,158.8 C1190.2,162.8 1192.1,168.3 1192.1,175.3 L1192.1,188.4 C1192.1,195.3 1190.2,200.9 1186.3,205 C1181.8,209.8 1175,212.1 1165.9,212.1 L1141.9,212.1 C1133.1,212.1 1126.5,210.1 1122.2,206.1 C1117.9,202.1 1115.7,196.2 1115.7,188.3 L1115.7,181.8 L1115.7,175.3 L1115.8,175.3 Z M1057.6,190.5 L1057.6,159 L1102.8,159 L1102.8,151.7 L1057.6,151.7 L1057.6,140.1 L1048.9,140.1 L1048.9,151.7 L1041.4,151.7 L1041.4,159 L1048.9,159 L1048.9,189.2 C1048.9,196.8 1050.8,202.5 1054.5,206.2 C1058.2,209.9 1063.6,211.8 1070.4,211.8 L1082.9,211.8 C1093,211.8 1100.1,208.9 1104.3,203.2 C1107,199.6 1108.3,194.9 1108.3,189.3 L1108.3,187.6 L1099.6,187.6 L1099.6,188.3 C1099.6,193.2 1098.8,196.8 1097.1,199.1 C1094.4,202.7 1089.4,204.6 1082.1,204.6 L1070.5,204.6 C1066.7,204.6 1063.7,203.5 1061.4,201.2 C1058.9,198.7 1057.6,195.1 1057.6,190.5 L1057.6,190.5 Z M966.7,188.4 C966.7,199.4 972.7,204.9 984.8,204.9 L1007.6,204.9 C1013.3,204.9 1017.7,203.5 1020.9,200.8 C1024.1,198.1 1025.7,194 1025.7,188.4 L1025.7,175.3 C1025.7,170 1024.1,166 1021,163.2 C1017.9,160.4 1013.4,159 1007.6,159 L984.8,159 C978.7,159 974.2,160.3 971.2,162.9 C968.2,165.5 966.7,169.6 966.7,175.3 L966.7,188.4 L966.7,188.4 Z M958,175.3 C958,168 960,162.4 963.9,158.5 C968.3,154.1 975.1,151.8 984.1,151.8 L1008.1,151.8 C1017.4,151.8 1024.2,154.1 1028.6,158.8 C1032.4,162.8 1034.3,168.3 1034.3,175.3 L1034.3,188.4 C1034.3,195.3 1032.4,200.9 1028.5,205 C1024,209.8 1017.2,212.1 1008.1,212.1 L984.1,212.1 C975.3,212.1 968.7,210.1 964.4,206.1 C960.1,202.1 957.9,196.2 957.9,188.3 L957.9,181.8 L957.9,175.3 L958,175.3 Z" id="Shape" fill-rule="nonzero"></path>
            <path d="M748.5,214.1 L748.5,127.6 L760,127.6 L760,214.1 L748.5,214.1 L748.5,214.1 Z M656.4,176.2 C656.4,169.6 658,163.2 662.7,158.4 C668.2,152.9 676.3,151.4 683.8,151.4 L707.7,151.4 C715.4,151.4 723.6,153 729.1,158.8 C733.6,163.6 735.2,169.8 735.2,176.2 L735.2,189.2 C735.2,195.7 733.6,201.9 729,206.7 C723.5,212.5 715.5,214.3 707.7,214.3 L683.8,214.3 C676.6,214.3 668.7,213 663.2,208 C657.9,203.1 656.3,196.2 656.3,189.3 L656.3,176.2 L656.4,176.2 Z M595.1,174.2 L603.1,174.2 L634,151.8 L652.8,151.8 L613.1,179.8 L655.5,214.2 L638.4,214.2 L602.5,184.5 L595.1,184.5 L595.1,214.2 L583.6,214.2 L583.6,127.6 L595.1,127.6 L595.1,174.2 L595.1,174.2 Z M495.3,176.2 C495.3,169.6 496.9,163.2 501.6,158.4 C507.1,152.9 515.2,151.4 522.7,151.4 L546.6,151.4 C554.3,151.4 562.5,153 568,158.8 C572.5,163.6 574.1,169.8 574.1,176.2 L574.1,189.2 C574.1,195.7 572.5,201.9 567.9,206.7 C562.4,212.5 554.4,214.3 546.6,214.3 L522.7,214.3 C515.5,214.3 507.6,213 502.1,208 C496.8,203.1 495.2,196.2 495.2,189.3 L495.2,176.2 L495.3,176.2 Z M667.9,189.3 C667.9,200.1 674.1,204.3 684.5,204.3 L707.2,204.3 C711.5,204.3 716.1,203.5 719.5,200.6 C722.8,197.8 723.8,193.5 723.8,189.3 L723.8,176.3 C723.8,172.2 722.8,168.2 719.6,165.4 C716.3,162.4 711.6,161.6 707.2,161.6 L684.5,161.6 C680.3,161.6 675.2,162.2 671.9,165.1 C668.7,167.9 667.9,172.3 667.9,176.3 L667.9,189.3 L667.9,189.3 Z M506.8,189.3 C506.8,200.1 513,204.3 523.4,204.3 L546,204.3 C550.3,204.3 554.9,203.5 558.3,200.6 C561.6,197.8 562.6,193.5 562.6,189.3 L562.6,176.3 C562.6,172.2 561.6,168.2 558.4,165.4 C555.1,162.4 550.4,161.6 546,161.6 L523.3,161.6 C519.1,161.6 514,162.2 510.7,165.1 C507.5,167.9 506.7,172.3 506.7,176.3 L506.7,189.3 L506.8,189.3 Z" id="Shape"></path>
            <path d="M750,212.6 L750,129 L758.7,129 L758.7,212.7 L750,212.7 L750,212.6 Z M666.5,189.3 C666.5,200.2 672.5,205.7 684.5,205.7 L707.2,205.7 C712.8,205.7 717.2,204.4 720.4,201.7 C723.6,199 725.2,194.9 725.2,189.3 L725.2,176.3 C725.2,171.1 723.7,167.1 720.6,164.3 C717.5,161.5 713.1,160.1 707.3,160.1 L684.6,160.1 C678.6,160.1 674.1,161.4 671.1,164 C668.1,166.6 666.6,170.7 666.6,176.3 L666.6,189.3 L666.5,189.3 Z M657.8,176.2 C657.8,169 659.8,163.4 663.7,159.4 C668.1,155 674.8,152.8 683.8,152.8 L707.7,152.8 C716.9,152.8 723.7,155.1 728.1,159.8 C731.9,163.8 733.8,169.3 733.8,176.2 L733.8,189.2 C733.8,196.1 731.9,201.6 728,205.7 C723.5,210.4 716.7,212.8 707.7,212.8 L683.8,212.8 C675,212.8 668.5,210.8 664.2,206.8 C659.9,202.8 657.7,196.9 657.7,189.1 L657.7,182.6 L657.7,176.2 L657.8,176.2 Z M585,212.8 L585,129 L593.7,129 L593.7,175.7 L603.6,175.7 L634.5,153.3 L648.4,153.3 L610.8,179.8 L651.6,212.8 L639.1,212.8 L603.2,183.1 L593.9,183.1 L593.9,212.8 L585,212.8 L585,212.8 Z M505.4,189.3 C505.4,200.2 511.4,205.7 523.4,205.7 L546,205.7 C551.6,205.7 556,204.4 559.2,201.7 C562.4,199 564,194.9 564,189.3 L564,176.3 C564,171.1 562.5,167.1 559.4,164.3 C556.3,161.5 551.9,160.1 546.1,160.1 L523.4,160.1 C517.4,160.1 512.9,161.4 509.9,164 C506.9,166.6 505.4,170.7 505.4,176.3 L505.4,189.3 L505.4,189.3 Z M496.7,176.2 C496.7,169 498.7,163.4 502.6,159.4 C507,155 513.7,152.8 522.7,152.8 L546.6,152.8 C555.8,152.8 562.6,155.1 567,159.8 C570.8,163.8 572.7,169.3 572.7,176.2 L572.7,189.2 C572.7,196.1 570.8,201.6 566.9,205.7 C562.4,210.4 555.6,212.8 546.6,212.8 L522.7,212.8 C513.9,212.8 507.4,210.8 503.1,206.8 C498.8,202.8 496.6,196.9 496.6,189.1 L496.6,182.6 L496.6,176.2 L496.7,176.2 Z" id="Shape" fill-rule="nonzero"></path>
            <polygon id="Shape" points="929.4 134.3 926.8 134.3 881.4 211.6 875.3 211.6 830 134.3 827.3 134.3 827.3 211.6 815.7 211.6 815.7 124.7 836.6 124.7 878.4 195 920.1 124.7 940.9 124.7 940.9 211.6 929.4 211.6"></polygon>
            <polygon id="Shape" fill-rule="nonzero" points="939.5 126.1 920.9 126.1 878.5 197.8 835.8 126.1 817.1 126.1 817.1 210.2 825.9 210.2 825.9 132.9 830.8 132.9 876.2 210.2 880.6 210.2 926 132.9 930.8 132.9 930.8 210.2 939.5 210.2"></polygon>
            <path d="M388.9,249.4 C386.8,249.4 385.2,249.9 384,251 C382.8,252.1 382.3,253.7 382.3,255.8 L382.3,261.9 C382.3,263.8 382.9,265.3 384.1,266.4 C385.3,267.5 386.8,268 388.6,268 L399.5,268 C402.1,268 404,267.3 405.2,265.9 C405.9,265 406.3,264 406.3,262.8 L406.3,262.3 L409.9,262.3 L409.9,262.7 C409.9,264.5 409.4,266.1 408.4,267.4 C406.7,269.8 403.8,271 399.6,271 L388.6,271 C385.3,271 382.8,270.2 381.2,268.6 C379.6,267 378.8,264.8 378.8,261.9 L378.8,255.8 C378.8,253 379.6,250.8 381.3,249.1 C383.1,247.3 385.6,246.4 389,246.4 L399.7,246.4 L399.8,246.4 C402.9,246.4 405.4,247.1 407.1,248.5 C409,250 410,252 410,254.5 L410,254.9 L406.4,254.9 L406.4,254.6 C406.4,252.9 405.8,251.7 404.6,250.7 C403.4,249.8 401.8,249.3 399.7,249.3 L388.9,249.3 L388.9,249.4 Z M471.4,256 C471.4,254 470.8,252.3 469.7,251.2 C468.5,250 466.9,249.4 464.9,249.4 L453.7,249.4 C451.8,249.4 450.3,250 449.2,251.2 C448,252.4 447.5,254 447.5,256 L471.4,256 L471.4,256 Z M447.4,259 L447.4,261.4 C447.4,263.8 448,265.5 449.3,266.6 C450.4,267.6 452,268.1 454.1,268.1 L465.7,268.1 C467.6,268.1 469,267.7 469.9,266.8 C470.8,266 471.3,264.9 471.3,263.6 L471.3,263.1 L474.9,263.1 L474.9,263.6 C474.9,265.5 474.3,267.1 473.1,268.4 C471.6,270.1 469.3,271 466.2,271 L454.2,271 C447.2,271 443.7,267.9 443.7,261.8 L443.7,255.4 C443.7,253 444.6,250.9 446.4,249.2 C448.3,247.3 450.9,246.4 454.1,246.4 L464.4,246.4 C467.8,246.4 470.4,247.3 472.3,249 C474,250.6 474.9,252.6 474.9,255 L474.9,259 L447.4,259 L447.4,259 Z M524.8,270.9 L521.2,270.9 L521.2,249.5 L507.9,249.5 L507.9,246.5 L524.8,246.5 L538.1,246.5 L538.1,249.5 L524.8,249.5 L524.8,270.9 L524.8,270.9 Z M601.9,261.7 C601.9,260 601.3,258.6 600.1,257.6 C598.8,256.5 596.8,256 594.3,256 L575.3,256 L575.3,246.5 L571.6,246.5 L571.6,270.9 L593.6,270.9 C596.3,270.9 598.3,270.4 599.7,269.4 C601.1,268.4 601.8,266.8 601.8,264.7 L601.8,261.7 L601.9,261.7 Z M575.3,259 L593,259 C595.1,259 596.6,259.3 597.3,259.9 C598,260.4 598.3,261.3 598.3,262.6 L598.3,264.4 C598.3,265.6 598,266.5 597.3,267 C596.4,267.7 595,268 593,268 L575.4,268 L575.4,259 L575.3,259 Z M682.5,261.7 C682.5,260 683.1,258.6 684.3,257.6 C685.6,256.5 687.6,256 690.1,256 L704.4,256 C706.1,256 707.4,256.3 708.2,256.9 C708.5,257.1 708.7,257.4 708.9,257.9 L708.9,254.5 C708.9,253 708.5,251.8 707.6,250.9 C706.5,249.9 705,249.4 703,249.4 L693.5,249.4 C691,249.4 689.2,249.9 688.2,251 C687.9,251.3 687.6,251.9 687.5,252.6 L687.5,253.5 L683.8,253.5 L683.8,252.6 C683.4,251.2 684.2,249.8 686,248.4 C687.6,247.1 689.8,246.5 692.6,246.5 L703.3,246.5 C706.5,246.5 708.9,247.3 710.4,248.8 C711.8,250.2 712.5,252.3 712.5,255.1 L712.5,270.9 L708.9,270.9 L708.9,268.9 C708.5,269.4 708.2,269.7 707.9,269.9 C706.9,270.6 705.8,270.9 704.6,270.9 L690.8,270.9 C688.1,270.9 686.1,270.4 684.7,269.4 C683.3,268.4 682.6,266.8 682.6,264.7 L682.6,261.7 L682.5,261.7 Z M691.4,259 C689.3,259 687.8,259.3 687.1,259.8 C686.4,260.3 686,261.3 686,262.5 L686,264.3 C686,265.5 686.3,266.3 687,266.9 C687.9,267.6 689.3,267.9 691.3,267.9 L703.4,267.9 C707,267.9 708.8,266.4 708.8,263.5 C708.8,262 708.4,260.9 707.5,260.1 C706.6,259.4 705.3,259 703.5,259 L691.4,259 L691.4,259 Z M751.1,249.3 L751.1,257 L769.5,257 C772.5,257 774,255.9 774,253.6 L774,252.6 C774,250.4 772.5,249.2 769.4,249.2 L751.1,249.2 L751.1,249.3 Z M747.5,270.9 L747.5,246.3 L768.9,246.3 C771.8,246.3 774,246.9 775.4,248 C776.8,249.1 777.5,250.7 777.5,252.6 L777.5,253.6 C777.5,254.9 777.1,255.9 776.4,256.8 C775.7,257.6 774.8,258.2 773.6,258.4 C775.1,258.8 776.3,259.4 777.1,260.4 C777.8,261.3 778.1,262.3 778.1,263.4 L778.1,264.5 C778.1,266.5 777.4,268.1 776,269.2 C774.6,270.3 772.4,270.9 769.4,270.9 L747.5,270.9 L747.5,270.9 Z M751.1,259.9 L751.1,267.8 L769.4,267.8 C773,267.8 774.7,266.7 774.7,264.4 L774.7,263.3 C774.7,262.1 774.4,261.3 773.8,260.8 C772.9,260.1 771.3,259.8 768.9,259.8 L751.1,259.8 L751.1,259.9 Z M828.5,270.9 L825,270.9 L825,249.5 L811.7,249.5 L811.7,246.5 L828.6,246.5 L841.9,246.5 L841.9,249.5 L828.6,249.5 L828.6,270.9 L828.5,270.9 Z M874.8,256 C874.8,253 875.6,250.7 877.2,249.1 C879,247.3 881.8,246.4 885.5,246.4 L895.3,246.4 C899.1,246.4 901.9,247.4 903.7,249.3 C905.2,250.9 906,253.2 906,256 L906,261.3 C906,264.1 905.2,266.4 903.6,268.1 C901.8,270 899,271 895.3,271 L885.5,271 C881.9,271 879.2,270.2 877.5,268.6 C875.7,267 874.9,264.6 874.9,261.4 L874.9,258.7 L874.9,256 L874.8,256 Z M878.3,261.3 C878.3,265.8 880.8,268 885.7,268 L895,268 C897.3,268 899.1,267.4 900.4,266.3 C901.7,265.2 902.4,263.5 902.4,261.2 L902.4,256 C902.4,253.9 901.8,252.2 900.5,251.1 C899.2,250 897.4,249.4 895,249.4 L885.7,249.4 C883.2,249.4 881.4,249.9 880.2,251 C879,252.1 878.4,253.7 878.4,256 L878.4,261.3 L878.3,261.3 Z M943.8,268 L967.4,268 L967.4,246.6 L971,246.6 L971,268 L973.9,268 L973.9,280.3 L970.4,280.3 L970.4,271 L940.2,271 L940.2,246.6 L943.8,246.6 L943.8,268 L943.8,268 Z M1034.6,256 C1034.6,254 1034,252.3 1032.9,251.2 C1031.7,250 1030.1,249.4 1028.1,249.4 L1016.9,249.4 C1015,249.4 1013.5,250 1012.4,251.2 C1011.2,252.4 1010.7,254 1010.7,256 L1034.6,256 L1034.6,256 Z M1010.6,259 L1010.6,261.4 C1010.6,263.8 1011.2,265.5 1012.5,266.6 C1013.6,267.6 1015.2,268.1 1017.3,268.1 L1028.9,268.1 C1030.8,268.1 1032.2,267.7 1033.1,266.8 C1034,266 1034.5,264.9 1034.5,263.6 L1034.5,263.1 L1038.1,263.1 L1038.1,263.6 C1038.1,265.5 1037.5,267.1 1036.3,268.4 C1034.8,270.1 1032.5,271 1029.4,271 L1017.4,271 C1010.4,271 1006.9,267.9 1006.9,261.8 L1006.9,255.4 C1006.9,253 1007.8,250.9 1009.6,249.2 C1011.5,247.3 1014.1,246.4 1017.3,246.4 L1027.6,246.4 C1031,246.4 1033.6,247.3 1035.5,249 C1037.2,250.6 1038.1,252.6 1038.1,255 L1038.1,259 L1010.6,259 L1010.6,259 Z M1076.3,270.9 L1072.7,270.9 L1072.7,246.5 L1076.3,246.5 L1076.3,256.5 L1099.9,256.5 L1099.9,246.5 L1103.5,246.5 L1103.5,270.9 L1099.9,270.9 L1099.9,259.4 L1076.3,259.4 L1076.3,270.9 L1076.3,270.9 Z M1153.8,270.9 L1150.2,270.9 L1150.2,249.5 L1136.9,249.5 L1136.9,246.5 L1153.8,246.5 L1167.1,246.5 L1167.1,249.5 L1153.8,249.5 L1153.8,270.9 L1153.8,270.9 Z M1211.3,246.5 L1220.9,246.5 C1224.5,246.5 1227.2,247.5 1229,249.4 C1230.5,251 1231.3,253.3 1231.3,256.1 L1231.3,261.4 C1231.3,264.4 1230.5,266.7 1228.9,268.3 C1227.2,270.1 1224.5,271 1220.9,271 L1211.3,271 C1209.1,271 1207.2,270.5 1205.7,269.6 C1205.2,269.3 1204.7,268.8 1204.2,268.2 L1204.2,280.8 L1200.6,280.8 L1200.6,246.4 L1204.2,246.4 L1204.2,249.1 C1204.7,248.5 1205.2,248.1 1205.7,247.8 C1207.1,246.9 1208.9,246.5 1211,246.5 L1211.3,246.5 L1211.3,246.5 Z M1204.2,256.1 L1204,258.8 L1204.2,261.5 C1204.2,263.5 1204.8,265 1206,266.2 C1207.3,267.5 1209.2,268.1 1211.8,268.1 L1219.7,268.1 C1222.4,268.1 1224.4,267.6 1225.8,266.5 C1227.1,265.4 1227.8,263.8 1227.8,261.5 L1227.8,256.2 C1227.8,254 1227.1,252.3 1225.7,251.2 C1224.3,250.1 1222.3,249.6 1219.7,249.6 L1211.8,249.6 C1209.3,249.6 1207.4,250.2 1206.1,251.4 C1204.8,252.5 1204.2,254.1 1204.2,256.1 L1204.2,256.1 Z M1264.8,256 C1264.8,253 1265.6,250.7 1267.2,249.1 C1269,247.3 1271.8,246.4 1275.5,246.4 L1285.3,246.4 C1289.1,246.4 1291.9,247.4 1293.7,249.3 C1295.2,250.9 1296,253.2 1296,256 L1296,261.3 C1296,264.1 1295.2,266.4 1293.6,268.1 C1291.8,270 1289,271 1285.3,271 L1275.5,271 C1271.9,271 1269.2,270.2 1267.5,268.6 C1265.7,267 1264.9,264.6 1264.9,261.4 L1264.9,258.7 L1264.9,256 L1264.8,256 Z M1268.4,261.3 C1268.4,265.8 1270.9,268 1275.8,268 L1285.1,268 C1287.4,268 1289.2,267.4 1290.5,266.3 C1291.8,265.2 1292.5,263.5 1292.5,261.2 L1292.5,256 C1292.5,253.9 1291.9,252.2 1290.6,251.1 C1289.3,250 1287.5,249.4 1285.1,249.4 L1275.8,249.4 C1273.3,249.4 1271.5,249.9 1270.3,251 C1269.1,252.1 1268.5,253.7 1268.5,256 L1268.5,261.3 L1268.4,261.3 Z M1334,249.3 L1334,257 L1352.4,257 C1355.4,257 1356.9,255.9 1356.9,253.6 L1356.9,252.6 C1356.9,250.4 1355.4,249.2 1352.3,249.2 L1334,249.2 L1334,249.3 Z M1330.4,270.9 L1330.4,246.3 L1351.8,246.3 C1354.7,246.3 1356.9,246.9 1358.3,248 C1359.7,249.1 1360.4,250.7 1360.4,252.6 L1360.4,253.6 C1360.4,254.9 1360,255.9 1359.3,256.8 C1358.6,257.6 1357.7,258.2 1356.5,258.4 C1358,258.8 1359.2,259.4 1360,260.4 C1360.7,261.3 1361,262.3 1361,263.4 L1361,264.5 C1361,266.5 1360.3,268.1 1358.9,269.2 C1357.5,270.3 1355.3,270.9 1352.3,270.9 L1330.4,270.9 L1330.4,270.9 Z M1334,259.9 L1334,267.8 L1352.3,267.8 C1355.9,267.8 1357.6,266.7 1357.6,264.4 L1357.6,263.3 C1357.6,262.1 1357.3,261.3 1356.7,260.8 C1355.8,260.1 1354.2,259.8 1351.8,259.8 L1334,259.8 L1334,259.9 Z" id="Shape" fill-rule="nonzero"></path>
        </g>
    </g>
</svg>