<svg xmlns="http://www.w3.org/2000/svg" viewBox="0 0 464.19 148.52">
	<defs>
		<style>
			.cls-1{fill:#fff;fill-rule:evenodd;}
			.cls-2{fill:#fff;stroke:#fff;stroke-linecap:round;stroke-linejoin:round;stroke-width:0.5px;}
			.cls-3{fill:transparent;stroke:transparent;}
		</style>
	</defs>
	<path class="cls-1" d="M.31,94.64V94.4l0-.23.07-.23.1-.22.12-.2.15-.19L1,93.16,1.16,93l.2-.13.22-.09.23-.07.23,0H4.35l.32,0,.33,0,.32-.06.31-.1.3-.11.29-.15L6.5,92l.27-.19L7,91.63l.23-.23.21-.25.19-.27.17-.28L8,90.31l.12-.3.09-.32.07-.32,0-.32V59.23l0-.58.07-.57.1-.57.12-.57.16-.56L9,55.83l.2-.54.24-.53.26-.51.28-.51.31-.49.33-.47.36-.46.37-.44.4-.42.42-.4.44-.38.45-.35.47-.34.49-.31.5-.29L17.13,48l1.31-.69,1.32-.67L21.09,46l1.35-.61,1.36-.59,1.37-.57,1.37-.53,1.39-.52,1.4-.48,1.41-.46,1.41-.44,1.42-.4L35,41l1.44-.36,1.45-.32,1.44-.3,1.46-.28L56.47,37l.41-.09.4-.1.4-.13.38-.14.38-.17L127.36,4l1-.44,1-.42,1-.39,1-.36,1-.34,1-.3,1-.28,1.05-.25L136.58,1l1.06-.19,1.07-.16,1.07-.14,1.08-.1,1.07-.07,1.08,0h86.43l1.68,0,1.68.08,1.68.1,1.68.12,1.67.16L239.5,1l1.67.21,1.67.25,1.65.27,1.66.3,1.65.32,1.64.36,1.64.38,1.63.42,1.62.44,1.62.46,1.6.5,1.6.52,1.59.55,1.58.57,1.57.61,1.56.63,1.55.65,1.53.69,1.53.71,1.51.73,1.5.76,1.49.79,1.47.81,45.81,25.73,1.13.62,1.14.59,1.16.57,1.17.55,1.18.51,1.19.5,1.2.46,1.22.44,1.21.42,1.23.38,1.24.36,1.25.34,1.25.3,1.26.28,1.27.25,1.27.22L435.91,61l.73.14.73.16.73.2.72.21.71.25.7.27.68.3.68.33.66.35.65.37.64.4.61.43.61.45.58.46.57.5.55.51.52.53.51.56L448,68l.46.59.44.6.42.63.39.64.37.65.34.67,8.74,17.79.1.19.13.17.15.17.17.14.17.13.2.11.2.08.21.06.22,0,2.09.13.17,0,.17,0,.17.08.15.1.13.12.11.14.09.15.06.17,0,.17,0,.18v15.19l0,.76,0,.76-.07.75-.11.75-.13.75-.15.74-.19.73-.22.73-.24.72-.27.7-.3.7-.32.69-.35.67-.38.65-.4.65-.42.62-.45.61-.47.6-.5.57-.51.56-.54.53-.56.51-.57.49-.6.47-.61.45-.63.42-.64.4-.66.37-.68.35-.68.32-.7.29-.71.27-.72.24-.72.21-.74.19-.74.15-.75.13-.75.1-.75.06-.76,0h-.76l-7.42,0h-.25l-.25,0-.24-.07-.24-.09-.22-.12-.21-.14-.19-.16-.17-.18-.16-.2-.13-.21-.11-.23-.09-.23,0-.25,0-.25v-.25L434.6,114v-2.32l0-1.15-.07-1.16-.1-1.15-.13-1.15-.16-1.15-.19-1.14-.22-1.14-.25-1.13-.27-1.13-.31-1.12-.33-1.11-.36-1.1L431.78,97l-.42-1.08-.44-1.07-.48-1.06-.5-1-.52-1-.55-1-.58-1-.6-1-.63-1-.65-1-.68-.94-.7-.92-.72-.91-.75-.88-.77-.87-.79-.84-.81-.83-.83-.8-.86-.79-.87-.76-.89-.74-.91-.71-.93-.7-.95-.66-1-.65-1-.62-1-.59-1-.57-1-.54-1-.52-1.05-.49-1.06-.46-1.07-.43-1.09-.41-1.09-.38-1.11-.35L401.36,69l-1.12-.3-1.13-.26L398,68.24,396.84,68l-1.15-.18-1.14-.15-1.15-.12-1.16-.09-1.16-.06-1.16,0h-1.15l-1.16,0-1.16,0-1.15.09-1.16.12-1.15.14-1.14.18-1.14.2-1.14.24-1.13.26-1.12.29-1.11.32-1.1.35L374,70l-1.09.41-1.07.43-1.06.46-1.06.49-1,.51-1,.54-1,.56-1,.59-1,.62-1,.64-1,.67-.93.68-.92.72-.89.73-.88.76-.85.78-.84.81-.81.82-.8.84-.77.87-.75.88-.73.9-.7.92-.68.94-.65,1-.63,1-.61,1-.58,1-.55,1-.53,1-.5,1-.48,1.06-.45,1.07-.42,1.08-.39,1.09L346.06,99l-.33,1.11-.31,1.12-.28,1.12-.25,1.14-.22,1.13-.19,1.14-.16,1.15-.14,1.15-.11,1.16-.07,1.15,0,1.16,0,1.16v19l0,.18-.07.17-.1.16-.12.14-.14.12-.16.1-.17.07-.18,0-.19,0H136.18l-.18,0-.19,0-.17-.07-.15-.1-.15-.12-.12-.14-.09-.16-.07-.17-.05-.18V112.73l0-1.16,0-1.16-.08-1.16-.1-1.16-.14-1.16-.16-1.15-.19-1.15-.22-1.14-.26-1.13-.28-1.13-.31-1.13L132.86,99l-.36-1.1-.4-1.1-.42-1.08-.45-1.07-.48-1.06-.5-1-.54-1-.55-1-.59-1-.61-1-.63-1-.66-1L126,85.6l-.71-.92-.73-.91-.75-.88L123,82l-.8-.84-.82-.83-.84-.8-.86-.78-.88-.76-.9-.74-.92-.71-.94-.69-1-.67-1-.64-1-.61-1-.59-1-.57-1-.53-1-.51L108,71.26l-1.07-.45-1.08-.43-1.09-.4-1.1-.38-1.12-.34-1.12-.32-1.12-.28-1.14-.26L98,68.17,96.86,68,95.7,67.8l-1.15-.14-1.16-.11-1.16-.08-1.16,0-1.16,0H88.74l-1.16,0-1.16.07-1.16.1-1.16.13L83,67.9l-1.15.18-1.14.22-1.14.25-1.13.27-1.12.3-1.12.34-1.1.36-1.1.39-1.09.41-1.07.45-1.06.47-1.06.5-1,.53-1,.55-1,.58-1,.6-1,.63-1,.66-.94.68-.93.7-.91.73-.89.75-.87.77-.85.79-.83.82-.81.84-.78.85-.77.88-.74.9-.72.91-.69.94-.67.95-.65,1-.62,1-.59,1-.57,1-.54,1-.52,1-.49,1.06-.46,1.07-.44,1.08L47,97.43l-.38,1.1-.35,1.11-.32,1.11-.3,1.13L45.38,103l-.24,1.14-.2,1.15-.18,1.15-.14,1.15-.12,1.16-.09,1.16,0,1.16,0,1.17v1.16l0,1.16.06,1.16.1,1.16.12,1.16.15,1.15.18,1.15.21,1.15.24,1.14.27,1.13.3,1.12,0,.25,0,.26v.25l0,.26,0,.25-.08.24-.11.23-.13.22-.16.21-.17.18-.2.17-.21.14-.23.12-.23.1-.25.07-.25,0h-.51L10.88,124.4l-.58-.08-.56-.1-.57-.13-.55-.16-.55-.18-.54-.22L7,123.3,6.49,123l-.5-.28-.48-.32L5,122.1l-.46-.36-.43-.38-.42-.4-.39-.42L3,120.1l-.35-.45-.33-.47L2,118.69l-.28-.51-.26-.51-.23-.53L1,116.6l-.18-.55-.15-.55-.13-.57-.1-.57-.07-.57,0-.58V94.64Zm95.5-63.52L98.6,44l.08.28.1.28.13.27.15.25.18.24.19.22.22.2.24.18,3.53,2.44.24.16.26.13.27.1.28.08.29.06.29,0,18.49.93h.14l.14,0,.13-.06.12-.08.1-.1.09-.12.06-.13,0-.14V49l-.69-29.41,0-.23,0-.23-.07-.21-.1-.21-.12-.2-.14-.18-.16-.16-.18-.14-.2-.13-.2-.09-.22-.08-.23,0-.22,0h-.23l-.23,0-.22.06-.22.08-24,11.05-.22.12-.19.14-.18.16-.16.19-.14.2-.1.22-.08.22-.06.24,0,.24v.24l0,.24Zm31.72-15,.78,33.24,0,.14,0,.14.07.13.09.12.11.09.13.08.14,0,.14,0,34.81,1.77,1,0,1,0h26.81l.23,0,.22,0,.22-.06.21-.09.2-.12.19-.13.16-.16.15-.18.13-.19.1-.2.08-.22.05-.22,0-.23v-.23l0-.23L187.57,9.82l0-.22-.08-.22-.11-.2-.12-.2-.15-.17-.17-.16-.18-.14-.2-.11-.21-.09-.22-.07-.22,0h-32.3l-1.28.05L151,8.31l-1.27.1-1.27.13-1.27.15-1.26.18-1.26.2-1.26.23-1.25.26-1.24.29-1.24.32-1.23.34-1.23.36-1.21.4-1.21.42-1.19.44-1.19.47-1.18.5-1.16.52-1.4.65-.21.11-.18.13-.18.15-.15.17-.13.19-.11.2-.09.21-.06.22,0,.23v.22ZM198,10.51l6.76,38.18.07.34.11.33.13.31.16.31.18.29.21.27.24.25.25.24.27.2.29.19.31.16.31.13.33.1.34.08.34,0,.34,0h38.22l3.24-.12,3.24-.09,3.23-.06,3.24,0h3.24l3.24,0,3.24.05,3.24.07,3.24.1,3.23.12,3.24.15,3.23.18h.18l.18,0,.18-.06.16-.08.14-.11.13-.13.11-.14.08-.17.06-.17,0-.18v-.18l0-.18-.05-.17-.17-.47-.14-.48-.11-.48-.08-.49-.06-.5,0-.49v-.5l0-.5,0-.49.07-.49.11-.49.13-.48.16-.47.18-.47.21-.45.24-.44.25-.42.28-.41.3-.4.33-.38h13.1l-.24-.53-.28-.52-.3-.5-.33-.49-.34-.48-.38-.45L299.5,38l-.42-.41-.43-.4-.46-.37-.47-.35-.49-.32-.51-.3L257.13,13.62,256,13.1l-1.17-.5-1.19-.47-1.2-.44-1.2-.42-1.22-.4-1.22-.36-1.23-.34-1.24-.32-1.24-.29L243.8,9.3l-1.26-.23-1.26-.2L240,8.69l-1.27-.15-1.26-.13-1.28-.1-1.27-.06-1.28-.05H199.74l-.23,0-.22.07-.21.09-.2.12-.18.13-.17.16-.14.18-.13.19-.1.2-.08.22-.05.22,0,.23v.23l0,.23Z"/>
	<polygon class="cls-1" points="125.14 112.73 125.13 113.76 125.08 114.78 125.01 115.8 124.91 116.81 124.77 117.83 124.61 118.84 124.42 119.84 124.2 120.84 123.95 121.83 123.68 122.82 123.37 123.8 123.04 124.76 122.68 125.72 122.29 126.67 121.88 127.6 121.44 128.52 120.97 129.43 120.47 130.33 119.95 131.21 119.41 132.07 118.84 132.92 118.25 133.75 117.63 134.57 116.99 135.36 116.32 136.14 115.64 136.9 114.93 137.64 114.2 138.36 113.45 139.06 112.69 139.73 111.9 140.38 111.09 141.01 110.27 141.62 109.43 142.2 108.57 142.76 107.7 143.29 106.81 143.79 105.91 144.28 104.99 144.73 104.06 145.16 103.12 145.56 102.17 145.94 101.21 146.28 100.23 146.6 99.25 146.89 98.27 147.15 97.27 147.39 96.27 147.59 95.26 147.77 94.25 147.92 93.23 148.03 92.22 148.12 91.19 148.18 90.17 148.21 89.15 148.21 88.13 148.18 87.11 148.12 86.09 148.03 85.07 147.92 84.06 147.77 83.05 147.59 82.05 147.39 81.06 147.15 80.07 146.89 79.09 146.6 78.11 146.28 77.15 145.94 76.2 145.56 75.26 145.16 74.33 144.73 73.42 144.28 72.51 143.79 71.63 143.29 70.75 142.76 69.9 142.2 69.06 141.62 68.23 141.01 67.42 140.38 66.64 139.73 65.87 139.06 65.12 138.36 64.39 137.64 63.69 136.9 63 136.14 62.34 135.36 61.7 134.57 61.08 133.75 60.48 132.92 59.91 132.07 59.37 131.21 58.85 130.33 58.35 129.43 57.89 128.52 57.45 127.6 57.03 126.67 56.64 125.72 56.28 124.76 55.95 123.8 55.64 122.82 55.37 121.83 55.12 120.84 54.9 119.84 54.71 118.84 54.55 117.83 54.42 116.81 54.31 115.8 54.24 114.78 54.2 113.76 54.18 112.73 54.2 111.71 54.24 110.69 54.31 109.67 54.42 108.65 54.55 107.64 54.71 106.63 54.9 105.62 55.12 104.63 55.37 103.63 55.64 102.65 55.95 101.67 56.28 100.7 56.64 99.75 57.03 98.8 57.45 97.87 57.89 96.94 58.35 96.04 58.85 95.14 59.37 94.26 59.91 93.39 60.48 92.55 61.08 91.71 61.7 90.9 62.34 90.1 63 89.32 63.69 88.56 64.39 87.83 65.12 87.11 65.87 86.41 66.64 85.74 67.42 85.08 68.23 84.45 69.06 83.85 69.9 83.27 70.75 82.71 71.63 82.18 72.51 81.67 73.42 81.19 74.33 80.73 75.26 80.31 76.2 79.9 77.15 79.53 78.11 79.18 79.09 78.86 80.07 78.57 81.06 78.31 82.05 78.08 83.05 77.87 84.06 77.7 85.07 77.55 86.09 77.43 87.11 77.34 88.13 77.28 89.15 77.26 90.17 77.26 91.19 77.28 92.22 77.34 93.23 77.43 94.25 77.55 95.26 77.7 96.27 77.87 97.27 78.08 98.27 78.31 99.25 78.57 100.23 78.86 101.21 79.18 102.17 79.53 103.12 79.9 104.06 80.31 104.99 80.73 105.91 81.19 106.81 81.67 107.7 82.18 108.57 82.71 109.43 83.27 110.27 83.85 111.09 84.45 111.9 85.08 112.69 85.74 113.45 86.41 114.2 87.11 114.93 87.83 115.64 88.56 116.32 89.32 116.99 90.1 117.63 90.9 118.25 91.71 118.84 92.55 119.41 93.39 119.95 94.26 120.47 95.14 120.97 96.04 121.44 96.94 121.88 97.87 122.29 98.8 122.68 99.75 123.04 100.7 123.37 101.67 123.68 102.65 123.95 103.63 124.2 104.63 124.42 105.62 124.61 106.63 124.77 107.64 124.91 108.65 125.01 109.67 125.08 110.69 125.13 111.71 125.14 112.73"/>
	<polygon class="cls-1" points="424.76 112.73 424.74 113.76 424.7 114.78 424.62 115.8 424.52 116.81 424.39 117.83 424.23 118.84 424.04 119.84 423.82 120.84 423.57 121.83 423.3 122.82 422.99 123.8 422.66 124.76 422.3 125.72 421.91 126.67 421.49 127.6 421.05 128.52 420.58 129.43 420.09 130.33 419.57 131.21 419.03 132.07 418.46 132.92 417.86 133.75 417.24 134.57 416.6 135.36 415.94 136.14 415.25 136.9 414.55 137.64 413.82 138.36 413.07 139.06 412.3 139.73 411.51 140.38 410.71 141.01 409.88 141.62 409.04 142.2 408.19 142.76 407.31 143.29 406.42 143.79 405.52 144.28 404.61 144.73 403.68 145.16 402.74 145.56 401.79 145.94 400.82 146.28 399.85 146.6 398.87 146.89 397.88 147.15 396.89 147.39 395.89 147.59 394.88 147.77 393.87 147.92 392.85 148.03 391.83 148.12 390.81 148.18 389.79 148.21 388.76 148.21 387.74 148.18 386.72 148.12 385.7 148.03 384.69 147.92 383.67 147.77 382.67 147.59 381.67 147.39 380.67 147.15 379.68 146.89 378.7 146.6 377.73 146.28 376.77 145.94 375.82 145.56 374.88 145.16 373.95 144.73 373.03 144.28 372.13 143.79 371.24 143.29 370.37 142.76 369.51 142.2 368.67 141.62 367.85 141.01 367.04 140.38 366.25 139.73 365.48 139.06 364.74 138.36 364.01 137.64 363.3 136.9 362.62 136.14 361.95 135.36 361.31 134.57 360.69 133.75 360.1 132.92 359.53 132.07 358.99 131.21 358.46 130.33 357.97 129.43 357.5 128.52 357.06 127.6 356.65 126.67 356.26 125.72 355.9 124.76 355.56 123.8 355.26 122.82 354.98 121.83 354.74 120.84 354.51 119.84 354.32 118.84 354.16 117.83 354.03 116.81 353.93 115.8 353.85 114.78 353.81 113.76 353.79 112.73 353.81 111.71 353.85 110.69 353.93 109.67 354.03 108.65 354.16 107.64 354.32 106.63 354.51 105.62 354.74 104.63 354.98 103.63 355.26 102.65 355.56 101.67 355.9 100.7 356.26 99.75 356.65 98.8 357.06 97.87 357.5 96.94 357.97 96.04 358.46 95.14 358.99 94.26 359.53 93.39 360.1 92.55 360.69 91.71 361.31 90.9 361.95 90.1 362.62 89.32 363.3 88.56 364.01 87.83 364.74 87.11 365.48 86.41 366.25 85.74 367.04 85.08 367.85 84.45 368.67 83.85 369.51 83.27 370.37 82.71 371.24 82.18 372.13 81.67 373.03 81.19 373.95 80.73 374.88 80.31 375.82 79.9 376.77 79.53 377.73 79.18 378.7 78.86 379.68 78.57 380.67 78.31 381.67 78.08 382.67 77.87 383.67 77.7 384.69 77.55 385.7 77.43 386.72 77.34 387.74 77.28 388.76 77.26 389.79 77.26 390.81 77.28 391.83 77.34 392.85 77.43 393.87 77.55 394.88 77.7 395.89 77.87 396.89 78.08 397.88 78.31 398.87 78.57 399.85 78.86 400.82 79.18 401.79 79.53 402.74 79.9 403.68 80.31 404.61 80.73 405.52 81.19 406.42 81.67 407.31 82.18 408.19 82.71 409.04 83.27 409.88 83.85 410.71 84.45 411.51 85.08 412.3 85.74 413.07 86.41 413.82 87.11 414.55 87.83 415.25 88.56 415.94 89.32 416.6 90.1 417.24 90.9 417.86 91.71 418.46 92.55 419.03 93.39 419.57 94.26 420.09 95.14 420.58 96.04 421.05 96.94 421.49 97.87 421.91 98.8 422.3 99.75 422.66 100.7 422.99 101.67 423.3 102.65 423.57 103.63 423.82 104.63 424.04 105.62 424.23 106.63 424.39 107.64 424.52 108.65 424.62 109.67 424.7 110.69 424.74 111.71 424.76 112.73"/>
	<line class="cls-2" x1="227.76" y1="0.31" x2="144.09" y2="0.31"/>
	<line class="cls-2" x1="123.67" y1="19.61" x2="124.36" y2="49.02"/>
	<line class="cls-2" x1="246.89" y1="51.95" x2="208.67" y2="51.95"/>
	<line class="cls-2" x1="163.87" y1="51.87" x2="129.06" y2="50.1"/>
	<line class="cls-2" x1="257.13" y1="13.62" x2="296.72" y2="35.87"/>
	<line class="cls-2" x1="301.76" y1="41.43" x2="288.66" y2="41.43"/>
	<line class="cls-2" x1="43.46" y1="127.88" x2="10.88" y2="124.4"/>
	<line class="cls-2" x1="8.29" y1="59.8" x2="8.29" y2="88.73"/>
	<line class="cls-2" x1="4.35" y1="92.67" x2="2.28" y2="92.67"/>
	<line class="cls-2" x1="0.31" y1="94.64" x2="0.31" y2="112.64"/>
	<line class="cls-2" x1="14.5" y1="49.39" x2="17.13" y2="47.98"/>
	<line class="cls-2" x1="40.79" y1="39.74" x2="56.47" y2="36.97"/>
	<line class="cls-2" x1="58.44" y1="36.34" x2="127.36" y2="4.03"/>
	<line class="cls-2" x1="343.95" y1="111.61" x2="343.95" y2="131.48"/>
	<line class="cls-2" x1="342.77" y1="132.66" x2="136.18" y2="132.66"/>
	<line class="cls-2" x1="135" y1="111.61" x2="135" y2="131.48"/>
	<line class="cls-2" x1="434.6" y1="113.99" x2="434.31" y2="124.43"/>
	<line class="cls-2" x1="436.66" y1="126.86" x2="444.08" y2="126.9"/>
	<line class="cls-2" x1="459.14" y1="89.58" x2="450.4" y2="71.8"/>
	<line class="cls-2" x1="435.91" y1="61.03" x2="341.21" y2="45.46"/>
	<line class="cls-2" x1="276.03" y1="12.94" x2="321.84" y2="38.67"/>
	<line class="cls-2" x1="204.79" y1="48.69" x2="198.03" y2="10.51"/>
	<line class="cls-2" x1="194.62" y1="49.63" x2="187.57" y2="9.82"/>
	<line class="cls-2" x1="192.68" y1="51.95" x2="166.87" y2="51.95"/>
	<line class="cls-2" x1="185.63" y1="8.19" x2="154.83" y2="8.19"/>
	<line class="cls-2" x1="232.37" y1="8.19" x2="199.97" y2="8.19"/>
	<line class="cls-2" x1="460.78" y1="90.68" x2="462.78" y2="90.81"/>
	<line class="cls-2" x1="463.89" y1="91.99" x2="463.89" y2="107.18"/>
	<line class="cls-2" x1="103.42" y1="48.33" x2="99.89" y2="45.89"/>
	<line class="cls-2" x1="98.6" y1="43.97" x2="95.81" y2="31.12"/>
	<line class="cls-2" x1="130.08" y1="13.62" x2="128.68" y2="14.27"/>
	<line class="cls-2" x1="127.53" y1="16.1" x2="128.31" y2="49.34"/>
	<line class="cls-2" x1="123.54" y1="49.82" x2="105.05" y2="48.89"/>
	<line class="cls-2" x1="120.87" y1="17.86" x2="96.91" y2="28.91"/>
	<line class="cls-2" x1="288.66" y1="41.43" x2="301.76" y2="41.43"/>
	<line class="cls-2" x1="296.72" y1="35.87" x2="257.13" y2="13.62"/>
	<line class="cls-2" x1="232.37" y1="8.19" x2="199.97" y2="8.19"/>
	<line class="cls-2" x1="198.03" y1="10.51" x2="204.79" y2="48.69"/>
	<line class="cls-2" x1="208.67" y1="51.95" x2="246.89" y2="51.95"/>
	<path class="cls-2" d="M424.76,112.73a35.49,35.49,0,1,0-35.48,35.48,35.49,35.49,0,0,0,35.48-35.48Z"/>
	<path class="cls-2" d="M125.14,112.73a35.48,35.48,0,1,0-35.48,35.48,35.48,35.48,0,0,0,35.48-35.48Z"/>
	<path class="cls-2" d="M166.87,52c-1,0-2,0-3-.08"/>
	<path class="cls-2" d="M130.08,13.62a59.1,59.1,0,0,1,24.75-5.43"/>
	<path class="cls-2" d="M232.37,8.19a59.11,59.11,0,0,1,24.76,5.43"/>
	<path class="cls-2" d="M296.72,35.87a11.79,11.79,0,0,1,5,5.56"/>
	<path class="cls-2" d="M10.88,124.4A11.84,11.84,0,0,1,.31,112.64"/>
	<path class="cls-2" d="M8.29,88.73a3.94,3.94,0,0,1-3.94,3.94"/>
	<path class="cls-2" d="M58.44,36.34a8.39,8.39,0,0,1-2,.63"/>
	<path class="cls-2" d="M8.29,59.8A11.86,11.86,0,0,1,14.5,49.39"/>
	<path class="cls-2" d="M.31,94.64a2,2,0,0,1,2-2"/>
	<path class="cls-3" d="M344,113.86c0-.38,0-.75,0-1.13a45.34,45.34,0,0,1,90.67,0c0,.42,0,.84,0,1.26"/>
	<path class="cls-2" d="M344,131.48a1.18,1.18,0,0,1-1.18,1.18"/>
	<path class="cls-2" d="M136.18,132.66a1.18,1.18,0,0,1-1.18-1.18"/>
	<path class="cls-2" d="M46,124.89a2.74,2.74,0,0,1,.08.64,2.36,2.36,0,0,1-2.36,2.36h-.25"/>
	<path class="cls-2" d="M436.66,126.86a2.36,2.36,0,0,1-2.36-2.36.15.15,0,0,1,0-.07"/>
	<path class="cls-2" d="M227.76.31A98.55,98.55,0,0,1,276,12.94"/>
	<path class="cls-2" d="M435.91,61A19.74,19.74,0,0,1,450.4,71.8"/>
	<path class="cls-2" d="M341.21,45.46a58.8,58.8,0,0,1-19.37-6.79"/>
	<path class="cls-2" d="M198,10.51a2.07,2.07,0,0,1,0-.35,2,2,0,0,1,2-2"/>
	<path class="cls-2" d="M185.63,8.19a2,2,0,0,1,1.94,1.63"/>
	<path class="cls-2" d="M194.62,49.63a2.07,2.07,0,0,1,0,.35,2,2,0,0,1-2,2"/>
	<path class="cls-2" d="M96,31.55a2.07,2.07,0,0,1-.19-.85,2,2,0,0,1,1.15-1.79"/>
	<path class="cls-2" d="M463.89,107.18a19.72,19.72,0,0,1-19.72,19.72h-.09"/>
	<path class="cls-2" d="M208.67,52a4,4,0,0,1-3.88-3.26"/>
	<path class="cls-2" d="M105.05,48.89a3.16,3.16,0,0,1-1.63-.56"/>
	<path class="cls-2" d="M99.89,45.89A3.13,3.13,0,0,1,98.6,44"/>
	<path class="cls-2" d="M127.36,4A39.5,39.5,0,0,1,144.09.31"/>
	<path class="cls-2" d="M17.13,48a78.89,78.89,0,0,1,23.66-8.24"/>
	<path class="cls-2" d="M127.53,16.1v0a2,2,0,0,1,1.15-1.79"/>
	<path class="cls-2" d="M120.87,17.86a2.13,2.13,0,0,1,.83-.18,2,2,0,0,1,2,1.93"/>
	<path class="cls-2" d="M129.06,50.1a.79.79,0,0,1-.75-.76"/>
	<path class="cls-2" d="M124.36,49v0a.79.79,0,0,1-.78.79h0"/>
	<path class="cls-2" d="M296.72,35.87a11.79,11.79,0,0,1,5,5.56"/>
	<path class="cls-2" d="M232.37,8.19a59.11,59.11,0,0,1,24.76,5.43"/>
	<path class="cls-2" d="M198,10.51a2.07,2.07,0,0,1,0-.35,2,2,0,0,1,2-2"/>
	<path class="cls-2" d="M208.67,52a4,4,0,0,1-3.88-3.26"/>
	<path class="cls-2" d="M246.89,52q7.76-.31,15.53-.31,11.67,0,23.32.69"/>
	<path class="cls-2" d="M286.92,50.73a1.2,1.2,0,0,1,.08.42,1.18,1.18,0,0,1-1.19,1.18h-.07"/>
	<path class="cls-2" d="M286.92,50.73a9,9,0,0,1,1.74-9.3"/>
	<path class="cls-2" d="M424.76,112.73a35.49,35.49,0,1,0-35.48,35.48,35.49,35.49,0,0,0,35.48-35.48Z"/>
	<path class="cls-2" d="M460.78,90.68a2,2,0,0,1-1.64-1.1"/>
	<path class="cls-2" d="M462.78,90.81A1.19,1.19,0,0,1,463.89,92"/>
</svg>