<svg viewBox="0 0 475.57007 159.25903" xmlns="http://www.w3.org/2000/svg" xmlns:svg="http://www.w3.org/2000/svg">
	<g transform="translate(-192.34161,-361.00001)">
		<path d="M 655.75,518.37903 C 657.25389,517.42648 658,515.97437 658,514 c 0,-4.53478 -3.26968,-6.05706 -14.44146,-6.72358 -13.58291,-0.81037 -12.18376,-2.5759 1.69146,-2.13439 10.97796,0.34931 11.25762,0.30442 11.56492,-1.85668 0.41002,-2.88346 -2.58439,-3.69531 -13.81492,-3.7455 -10.11969,-0.0452 -13.55994,0.76938 -15.05617,3.5651 -3.02666,5.65536 1.67054,8.88536 12.95539,8.9087 7.47355,0.0155 11.10078,0.74747 11.10078,2.24025 0,0.66534 -4.20697,0.84737 -12.08494,0.52292 -9.87849,-0.40684 -12.18496,-0.23705 -12.63278,0.92995 -0.86959,2.26611 0.91319,3.26367 7.28027,4.0737 8.0456,1.02358 18.44484,0.33572 21.18745,-1.40144 z m -419.84497,0.50423 c 2.44062,-0.8508 3.13102,-1.62473 2.89922,-3.25 -0.24549,-1.72124 -0.88367,-2.07353 -3.30425,-1.82402 -11.08466,1.14262 -15.34035,1.20592 -17.81047,0.26493 -2.48591,-0.94701 -2.77462,-1.50392 -2.5,-4.82241 L 215.5,505.5 l 11.75,0.12746 c 10.79413,0.11709 11.75,-0.0224 11.75,-1.71482 0,-3.02334 -3.8479,-4.20051 -13.95683,-4.26975 -9.26681,-0.0635 -13.40672,0.95453 -15.27786,3.75681 -0.40408,0.60517 -0.74158,3.61806 -0.75,6.69531 -0.0154,5.61989 1.16072,7.78951 4.98469,9.19555 2.7669,1.01738 18.66626,0.72174 21.90503,-0.4073 z m 45.75952,0.0542 c 3.79659,-1.44346 4.30238,-2.51911 4.32014,-9.18744 0.0116,-4.34864 -0.45208,-6.21739 -1.90246,-7.66777 -2.37092,-2.37092 -10.67068,-3.52351 -20.37357,-2.82927 -8.97994,0.64251 -10.71573,2.36442 -10.69335,10.60782 0.0175,6.43068 0.55841,7.6474 4.01292,9.02602 3.34611,1.33536 21.16094,1.37197 24.63632,0.0506 z m -21.96409,-4.57031 c -1.44412,-1.44412 -0.74971,-9.13425 0.88133,-9.76014 2.3611,-0.90604 16.71798,-0.70333 18.23308,0.25743 0.84969,0.53882 1.20348,2.39076 1,5.23469 L 279.5,514.5 l -9.54954,0.28379 c -5.25225,0.15609 -9.86475,-0.0314 -10.25,-0.41666 z m 47.31195,-1.11713 0.0124,-6.75 6.10242,6.25 c 3.35633,3.4375 6.3147,6.25 6.57415,6.25 0.25945,0 3.28184,-2.69841 6.71642,-5.99646 l 6.24469,-5.99646 0.0615,5.24646 c 0.091,7.77097 0.0826,7.74646 2.67654,7.74646 2.33185,0 2.41207,-0.26455 2.80492,-9.25 0.22242,-5.0875 0.21905,-9.8125 -0.007,-10.5 -0.22655,-0.6875 -1.59015,-1.25 -3.03021,-1.25 -1.93136,0 -4.27733,1.75127 -8.94163,6.67494 l -6.32332,6.67494 -6.7872,-6.7352 c -5.92644,-5.88103 -7.12509,-6.6504 -9.45139,-6.06653 C 301.00323,500.216 301,500.22881 301,510.10841 V 520 h 3 3 z M 360,517 v -3 h 10.77749 C 383.72099,514 386,512.96672 386,507.09828 c 0,-6.31012 -1.48638,-6.92058 -17.5,-7.18734 l -14,-0.23321 -0.29142,8.83199 C 353.86301,518.9826 354.15166,520 357.46862,520 359.6146,520 360,519.54325 360,517 Z m 0,-10 c 0,-1.86667 0.66667,-2 10,-2 9.33333,0 10,0.13333 10,2 0,1.86667 -0.66667,2 -10,2 -9.33333,0 -10,-0.13333 -10,-2 z m 70.89806,10.59501 C 432.56151,516.08743 433,514.51056 433,510.03614 c 0,-3.10963 -0.57455,-6.43962 -1.27678,-7.39998 -3.70228,-5.06317 -27.9633,-4.79312 -30.71145,0.34185 -1.17889,2.20278 -1.33417,11.96663 -0.21823,13.72218 1.55984,2.45385 6.00086,3.25195 16.85452,3.0289 9.35538,-0.19225 11.48606,-0.53542 13.25,-2.13408 z m -24.1976,-3.22788 c -1.44412,-1.44412 -0.74971,-9.13425 0.88133,-9.76014 2.3611,-0.90604 16.71798,-0.70333 18.23308,0.25743 0.84969,0.53882 1.20348,2.39076 1,5.23469 L 426.5,514.5 l -9.54954,0.28379 c -5.25225,0.15609 -9.86475,-0.0314 -10.25,-0.41666 z M 454,513.5 c 0,-4.00118 0.41659,-6.5 1.08365,-6.5 0.59601,0 5.36739,2.925 10.60306,6.5 6.31721,4.3135 10.49389,6.5 12.41634,6.5 H 481 v -9.83333 c 0,-5.40834 -0.23558,-10.06891 -0.5235,-10.35684 -0.28793,-0.28792 -1.63793,-0.31047 -3,-0.0501 -2.32725,0.44488 -2.4765,0.85812 -2.4765,6.85684 0,3.51088 -0.26392,6.38342 -0.58648,6.38342 -0.32257,0 -5.16007,-3.12254 -10.75,-6.93899 -8.26398,-5.6421 -10.67749,-6.83515 -12.91352,-6.38342 l -2.75,0.55556 v 9.21676 c 0,5.06922 0.3,9.51676 0.66667,9.88342 0.36666,0.36667 1.71666,0.66667 3,0.66667 2.20512,0 2.33333,-0.35714 2.33333,-6.5 z m 70,4.03383 c 0,-2.45101 -0.0661,-2.46791 -10.75,-2.75 -12.91721,-0.34105 -14.15305,-2.15166 -1.75605,-2.57276 8.2923,-0.28168 8.50605,-0.35078 8.50605,-2.75 C 520,507.03934 519.86414,507 511.5,507 c -12.13009,0 -10.65253,-1.87019 1.75,-2.21502 9.76845,-0.27159 10.26501,-0.39069 10.56955,-2.53498 0.31792,-2.23849 0.25014,-2.25 -13.25,-2.25 H 497 v 10 10 H 510.5 524 Z M 544.12625,515.75 c 0.0694,-2.3375 0.10078,-5.4875 0.0697,-7 -0.0311,-1.5125 0.17598,-2.75 0.46023,-2.75 0.28426,0 5.1026,3.15 10.70743,7 7.44024,5.11076 11.06044,7 13.41351,7 H 572 v -9.91667 c 0,-10.20972 -0.4414,-11.29162 -4.20832,-10.31484 -1.36274,0.35336 -1.76733,1.82592 -2,7.2792 l -0.29168,6.83622 -5.24257,-3.69196 C 544.57529,499.14818 544.55608,499.13728 541.75,499.69075 l -2.75,0.5424 v 9.88343 c 0,9.87565 0.002,9.88342 2.5,9.88342 2.25471,0 2.51239,-0.417 2.62625,-4.25 z M 603,512.5499 v -7.45009 l 5.75,-0.29991 c 5.09369,-0.26567 5.78647,-0.55672 6.06955,-2.5499 0.31884,-2.245 0.28718,-2.25 -14.25,-2.25 H 586 v 2.4501 c 0,2.28128 0.39617,2.47076 5.75,2.75 l 5.75,0.2999 -0.29608,4.99832 C 596.77364,517.76195 597.5545,520 600.51905,520 602.93831,520 603,519.81475 603,512.5499 Z M 244.15721,477.19626 c 0.91146,-5.49192 2.17543,-12.48161 2.80882,-15.53263 l 1.15162,-5.54732 50.69117,-0.31478 c 49.85526,-0.30959 50.79554,-0.35239 57.01989,-2.5953 15.19903,-5.47689 23.49945,-14.70426 26.72206,-29.70623 4.39783,-20.47289 0.38129,-31.86047 -13.79184,-39.1022 -10.15506,-5.18871 -12.69045,-5.36433 -78.14672,-5.41312 -33.38785,-0.0249 -61.08745,0.191 -61.55466,0.47975 -0.68579,0.42384 -3.41135,15.13087 -3.52774,19.03557 -0.0194,0.64997 20.29974,1.17502 58.04902,1.5 l 58.07883,0.5 3.73957,2.85306 c 5.485,4.18472 6.2072,6.42826 4.64565,14.432 -1.99744,10.23788 -4.37104,13.75565 -12.04288,17.84797 -3.26293,1.74051 -6.26203,1.85946 -44.27753,1.75611 -22.42763,-0.061 -40.99049,-0.32382 -41.25078,-0.58412 -0.41006,-0.41005 0.46624,-6.15857 1.6471,-10.80502 0.32452,-1.27693 -1.93467,-1.54082 -15.19127,-1.77449 l -15.57248,-0.27449 -2.24644,13.27449 c -5.41799,32.01556 -7.25185,42.50862 -8.03523,45.97637 -0.45996,2.03603 -0.70226,3.83603 -0.53845,4 0.16381,0.16397 6.97296,0.22647 15.13146,0.13891 L 242.5,487.18158 Z m 400.16357,7.97292 c 6.1173,-2.08502 11.46971,-7.60783 13.12493,-13.54276 0.78635,-2.81953 2.59035,-16.15142 4.00889,-29.62642 1.41853,-13.475 3.47156,-32.46609 4.56228,-42.20242 3.32699,-29.69857 2.88746,-32.24502 -6.3365,-36.71026 L 655.36855,361 H 438.3335 c -159.58962,0 -217.93477,0.30124 -220.43428,1.1381 -4.1586,1.39236 -9.42269,5.20498 -11.44234,8.28736 -1.61115,2.45893 -2.99176,12.57094 -9.43086,69.07454 -2.19372,19.25 -4.2212,36.8 -4.50553,39 -0.3309,2.56036 -0.19921,3.46013 0.36591,2.5 0.48557,-0.825 2.30246,-9.6 4.03751,-19.5 1.73505,-9.9 4.03197,-22.5 5.10427,-28 7.54308,-38.68985 10.17513,-51.37366 11.20572,-54 1.83967,-4.6882 6.90015,-8.95398 12.83452,-10.81897 5.05959,-1.59007 19.71115,-1.68897 213.93158,-1.444 195.70462,0.24683 208.69461,0.36944 211.67116,1.99788 4.73791,2.59206 7.32884,6.82961 7.32884,11.98654 0,7.98701 -10.78363,65.93104 -13.46435,72.34838 -2.02084,4.83767 -5.91434,9.04542 -10.53565,11.38599 -10.94557,5.54364 -33.93627,7.42846 -147,12.05134 -38.80468,1.58662 -85.99183,3.92484 -100.5,4.97999 -7.15,0.52 -26.01903,1.45569 -41.93117,2.07932 -15.91214,0.62362 -31.88714,1.48351 -35.5,1.91085 -3.61286,0.42735 69.25617,0.71335 161.93117,0.63557 135.4926,-0.11373 169.24845,-0.39654 172.32078,-1.44371 z M 418.17128,452 c 0.41297,-1.925 1.92968,-10.475 3.37047,-19 2.93393,-17.35972 4.89047,-21.94853 11.23206,-26.34325 6.00914,-4.16434 9.22904,-4.65675 30.45054,-4.65675 22.5164,0 19.63838,1.38775 21.77565,-10.5 0.5933,-3.3 1.30646,-7.05981 1.5848,-8.35513 l 0.50607,-2.35512 -19.79543,0.4547 c -15.85403,0.36418 -20.78934,0.81844 -24.78724,2.28152 -5.80808,2.12554 -10.8329,4.89604 -14.88377,8.20635 -1.58156,1.29243 -3.01919,2.20625 -3.19474,2.0307 -0.17554,-0.17554 0.0783,-2.0817 0.56419,-4.2359 0.48585,-2.15419 0.65943,-4.27906 0.38573,-4.72192 C 425.1059,384.36234 419.61464,384 413.17679,384 h -11.70517 l -3.80691,20.25 c -2.09381,11.1375 -5.07609,27 -6.6273,35.25 -1.55121,8.25 -2.61014,15.34965 -2.35319,15.77699 0.25695,0.42735 6.82771,0.65235 14.6017,0.5 L 417.42043,455.5 Z m 191.40041,1.98166 c 13.9667,-3.57208 24.34548,-11.76973 28.27704,-22.33457 1.05348,-2.8309 2.42971,-9.04301 3.05829,-13.80468 1.91784,-14.52822 -1.21887,-22.74837 -11.17027,-29.27311 C 619.23013,381.68053 617.66632,381.5 568.5,381.5 c -47.10412,0 -48.59805,0.13299 -58.88069,5.24141 -5.5984,2.78129 -13.59242,10.37286 -16.17091,15.35679 -2.70223,5.22313 -4.39053,12.54152 -5.09691,22.09398 -0.59942,8.10605 -0.46008,9.06558 2.06643,14.22959 3.22386,6.58933 8.08643,10.86417 15.58208,13.6987 8.959,3.3879 12.63447,3.63889 55.09004,3.76191 37.66493,0.10914 41.15874,-0.0278 48.48165,-1.90072 z M 535.9753,437.02464 c -6.30857,-0.8143 -8.5128,-1.81185 -11.82193,-5.35013 -2.5892,-2.7685 -2.92914,-5.76733 -1.72015,-15.17451 0.66812,-5.19863 1.29198,-6.49576 4.67095,-9.71186 6.41087,-6.10183 10.45124,-6.78814 39.9625,-6.78814 28.97829,0 33.91954,0.81804 38.60968,6.39195 2.40073,2.8531 2.52658,3.51478 1.91665,10.07735 -1.14975,12.37084 -6.52184,18.8055 -17.15363,20.54651 -6.69139,1.09575 -45.99413,1.10212 -54.46407,0.009 z" />
	</g>
</svg>
